<svg width="1428" height="407" viewBox="0 0 1428 407" fill="none" xmlns="http://www.w3.org/2000/svg">
<path fill-rule="evenodd" clip-rule="evenodd" d="M2.86523 93.6475L124.094 129.42C154.782 113.556 170.868 105.19 175.395 102.75L183.415 98.4199L200.395 107.15C209.725 111.95 224.905 119.84 234.115 124.66L250.865 133.44L250.855 84.1104V34.7803L235.105 26.7803C226.445 22.3799 211.245 14.5498 201.315 9.38965L183.265 0L135.315 24.7598L112.874 36.3428C91.1848 47.5371 68.3064 59.3438 55.3652 66.0195C37.7651 75.1104 18.7551 84.9805 13.1152 87.96L2.86523 93.3896V93.6475ZM108.865 264.78C108.865 319.51 108.515 364.28 108.095 364.28C107.853 364.28 106.071 363.409 103.483 362.049C101.474 360.993 98.9802 359.644 96.3452 358.18L91.9326 355.726C84.106 351.373 70.7239 343.931 58.8652 337.33C44.2952 329.23 26.7451 319.53 19.8652 315.78C12.9854 312.03 6.35522 308.35 5.11523 307.6L2.86523 306.23V262.51V218.78L22.1152 209.05C28.7585 205.694 40.5452 199.705 52.9329 193.396C60.2925 189.648 67.864 185.788 74.6953 182.3C93.0352 172.94 108.225 165.28 108.445 165.28C108.675 165.28 108.865 210.05 108.865 264.78ZM261.865 325.56C280.798 335.501 289.947 340.343 294.25 342.785L254.255 321.559L261.865 325.56ZM215.329 390.099C198.847 399.054 185.288 406.27 184.965 406.26C184.315 406.25 177.765 402.73 150.365 387.67L132.365 377.78L132.625 317.55L132.885 257.33L139.125 260.7C144.631 263.68 177.558 281.104 209.833 298.142L185.365 406L215.329 390.099ZM782.555 274.15C777.505 276.55 768.755 277.51 763.585 276.23C757.905 274.83 754.605 272.84 750.575 268.38C742.635 259.59 738.915 247.74 738.885 231.17C738.855 214.52 742.115 203.56 749.555 195.28C755.465 188.71 760.635 186.1 768.985 185.51C778.295 184.84 784.455 187.05 790.045 193.08L794.405 197.78L794.025 175.5L793.645 153.23L809.005 153.5L824.365 153.78L824.885 275.28H801.335L798.045 269.78C797.093 268.191 796.177 266.753 795.486 265.746C794.864 264.838 794.424 264.28 794.305 264.28C794.065 264.28 792.255 266.05 790.295 268.22C788.345 270.39 784.855 273.06 782.555 274.15ZM1371.87 254.22V275.28H1341.87V153.28H1372.04L1371.7 175.28C1371.52 187.38 1371.61 197.28 1371.91 197.28C1371.95 197.28 1372.03 197.242 1372.14 197.169C1372.53 196.909 1373.33 196.212 1374.34 195.268C1374.73 194.9 1375.15 194.496 1375.58 194.064C1375.97 193.688 1376.36 193.29 1376.77 192.88C1382.61 186.93 1389.3 184.82 1400 185.55C1409.5 186.2 1416.62 189.71 1421.59 196.18C1427.43 203.76 1427.87 207.06 1427.87 242.96V275.28H1396.87V247.25C1396.87 217.18 1396.45 214.2 1391.75 210.91C1386.93 207.53 1378.53 210.16 1375.53 215.99C1372.99 220.92 1371.87 232.64 1371.87 254.22ZM227.414 307.418C231.17 309.399 234.842 311.335 238.379 313.199C236.973 312.458 235.546 311.706 234.1 310.944L232.189 309.937L228.94 308.224L227.414 307.418ZM486.545 276.22C478.015 277.38 475.885 277.38 465.265 276.26C457.415 275.43 455.955 275.09 447.615 272.1L441.865 270.04V242.42L448.115 244.99C466.805 252.67 487.635 253.53 490.245 246.74C491.455 243.58 490.835 240.33 488.615 238.21C487.375 237.02 479.965 232.92 472.155 229.08C456.225 221.26 450.665 216.96 446.335 209.14C443.575 204.15 443.365 203.05 443.365 193.28C443.365 183.52 443.575 182.4 446.315 177.46C454.125 163.36 474.485 156.56 497.655 160.32C503.925 161.33 518.265 165.56 520.605 167.08C521.525 167.68 520.665 170.82 517.155 179.61C513.445 188.91 512.155 191.21 510.925 190.69C495.825 184.29 481.435 182.43 476.615 186.25C473.295 188.88 472.845 194.05 475.715 196.65C476.735 197.57 484.275 201.66 492.465 205.73C516.535 217.68 521.265 223.35 521.325 240.28C521.355 248.16 520.955 250.67 519.005 254.99C514.135 265.79 501.215 274.24 486.545 276.22ZM563.705 311.18C558.915 312.79 555.155 313.26 547.425 313.2C541.895 313.16 536.805 312.9 536.115 312.62C535.215 312.25 534.865 308.84 534.865 300.45V288.78H542.785C552.215 288.78 554.635 287.41 559.055 279.59L561.955 274.46L544.775 231.26C531.005 196.63 527.875 187.89 528.985 187.17C529.745 186.68 536.855 186.39 544.775 186.53L559.195 186.78L566.495 211.28C570.515 224.76 574.315 238.23 574.945 241.23L576.085 246.67L578.445 237.73C579.745 232.81 583.685 219.33 587.215 207.78L593.625 186.78L608.415 186.5C616.555 186.35 623.515 186.57 623.875 187C624.875 188.16 587.455 287.7 583.645 294.04C578.805 302.09 571.165 308.66 563.705 311.18ZM950.175 276.26C942.455 277.37 941.935 277.37 936.195 276.24C927.855 274.59 921.415 269.24 918.185 261.28C915.475 254.58 915.665 241.13 918.565 235.69C924.375 224.77 938.215 219.31 960.115 219.29C968.825 219.28 968.865 219.27 968.865 216.73C968.865 213.47 966.415 208.7 964.325 207.9C960.265 206.35 950.125 207.39 942.095 210.19L940.998 210.575C940.565 210.729 940.158 210.876 939.775 211.02L939.715 211.041C936.953 212.038 935.407 212.596 934.225 212.16C932.718 211.61 931.805 209.44 929.746 204.542C929.333 203.561 928.874 202.469 928.355 201.26L924.945 193.29L927.965 191.73C937.555 186.77 964.015 183.7 974.945 186.28C985.615 188.79 992.775 194.46 997.065 203.78C999.295 208.63 999.375 209.78 999.665 242.03L999.965 275.28H978.235L975.355 269.26L972.475 263.24L967.925 267.65C962.045 273.34 958.525 275.05 950.175 276.26ZM665.865 252.46V275.28H634.845L635.105 231.03L635.365 186.78L644.865 186.49C657.815 186.09 658.375 186.3 660.365 192.28C661.275 195.03 662.575 197.28 663.255 197.28C663.935 197.28 665.525 195.88 666.785 194.18C668.045 192.47 671.615 189.88 674.725 188.43C679.645 186.12 681.645 185.78 690.365 185.78C699.295 185.78 700.975 186.08 706.075 188.58C712.075 191.53 716.675 196.4 719.625 202.94C721.145 206.3 721.405 211.09 721.675 241.03L721.985 275.28H690.865V247.25C690.865 217.18 690.445 214.2 685.745 210.91C680.925 207.54 672.215 209.76 669.475 215.07C666.775 220.29 665.865 229.72 665.865 252.46ZM1220.34 274.67C1214.17 276.17 1198.65 277.32 1193.37 276.66C1171.39 273.93 1159.22 264.24 1154.36 245.59C1152.64 238.99 1152.41 226 1153.88 218.17C1156.33 204.99 1166 192.76 1177.62 188.13C1182.6 186.14 1185.11 185.84 1196.37 185.87C1207.46 185.89 1210.21 186.23 1215.12 188.16C1223.17 191.33 1230.84 198.62 1234.42 206.49C1236.99 212.16 1237.31 214.08 1237.69 226.03L1238.1 239.28H1183.87V241.63C1183.87 244.94 1187.74 250.3 1191.87 252.73C1197.17 255.84 1212.52 255.45 1223.33 251.94C1229.36 249.99 1231.49 249.65 1232.09 250.57C1232.52 251.23 1232.76 255.81 1232.62 260.73C1232.37 269.53 1232.32 269.7 1229.34 271.44C1227.67 272.41 1223.62 273.86 1220.34 274.67ZM1113.87 186.28V275.28H1082.87V186.28H1054.87V161.28H1141.87V186.28H1113.87ZM1311.29 274.69C1286.65 280.74 1264.65 273.21 1256.5 255.94C1252.88 248.29 1251.54 239.74 1252.1 228.03C1253.11 207.07 1261.14 195.05 1278.76 188.11C1283.49 186.25 1286.41 185.89 1297.37 185.84C1308.35 185.79 1311.46 186.14 1317.4 188.08C1318.05 188.296 1318.66 188.495 1319.24 188.681L1319.29 188.699L1319.31 188.702L1319.32 188.708C1323.19 189.959 1325.22 190.617 1325.9 191.96C1326.65 193.463 1325.71 195.801 1323.73 200.735L1323.71 200.8C1323.59 201.081 1323.47 201.372 1323.35 201.672L1322.86 202.93C1320.48 208.9 1318.48 213.87 1318.41 213.99C1318.34 214.1 1314.8 213.09 1310.54 211.74C1300.73 208.62 1295.22 208.57 1290.82 211.53C1284.8 215.59 1283.37 219.38 1283.37 231.28C1283.37 243.19 1284.71 246.95 1290.17 250.39C1295.05 253.46 1306.98 252.63 1316.62 248.55L1323.87 245.47V269.12L1320.54 271.18C1318.71 272.31 1314.54 273.89 1311.29 274.69ZM876.035 250.03L875.715 275.28H845.865V186.28L856.115 186.3C861.755 186.3 866.845 186.64 867.445 187.05C868.035 187.45 869.575 190.81 870.875 194.52L873.225 201.26L878.295 195.82C885.205 188.41 892.545 185.08 901.065 185.48L907.365 185.78L907.315 192.28C907.295 195.85 906.915 202.27 906.485 206.53L905.695 214.28H897.095C886.945 214.28 881.425 216.4 878.345 221.51C876.535 224.5 876.335 226.98 876.035 250.03ZM775.595 250.28C777.425 251.72 779.655 252.28 783.545 252.28C788.115 252.28 789.345 251.87 791.405 249.64C794.705 246.08 795.855 241.37 795.855 231.4C795.865 221.11 794.405 215.91 790.615 212.72C786.795 209.51 779.355 209.32 775.525 212.33C767.955 218.29 768.005 244.31 775.595 250.28ZM949.975 253.53C954.275 257.1 964.015 254.68 967.215 249.26C968.165 247.65 968.865 244.31 968.865 241.38V236.28L963.115 236.34C959.955 236.37 955.785 236.93 953.865 237.59C947.295 239.83 944.965 249.37 949.975 253.53ZM1184.63 219.7C1184.94 220.02 1190.75 220.28 1197.54 220.28H1209.87V217.53C1209.86 213.8 1206.44 208.45 1203.3 207.26C1197.28 204.96 1189.15 207.02 1186.79 211.43C1185.14 214.51 1183.96 219.04 1184.63 219.7ZM212.795 174.7C210.625 179.6 209.865 180.33 209.865 177.51C209.865 174.65 204.025 168.28 201.395 168.28C200.125 168.28 198.815 167.6 198.505 166.78C198.075 165.67 198.645 165.28 200.725 165.28C203.945 165.28 207.105 162.33 209.195 157.36L210.625 153.95L212.725 158.69C214.235 162.1 215.675 163.76 217.845 164.58C218.669 164.893 219.419 165.294 219.966 165.69C220.52 166.092 220.865 166.488 220.865 166.78C220.865 167.36 219.505 168.35 217.845 168.98C215.695 169.79 214.235 171.45 212.795 174.7ZM165.175 182.66C163.405 184.16 161.855 186.52 161.675 188C161.385 190.5 161.295 190.44 160.025 186.91C159.205 184.6 157.765 182.81 156.275 182.25C153.375 181.14 153.155 179.64 155.775 178.81C157.845 178.15 160.345 174.86 161.135 171.74C161.286 171.158 161.396 170.812 161.481 170.713C161.621 170.55 161.689 171.072 161.745 172.34C161.865 174.93 166.625 177.99 169.025 178.81C169.885 179.1 167.265 180.89 165.175 182.66Z" fill="#0343B1"/>
<path fill-rule="evenodd" clip-rule="evenodd" d="M187.845 221.61C187.875 225.33 189.715 224.15 190.935 219.61C193.375 210.521 197.555 206.49 206.045 205.04L210.365 204.3L204.865 202.54C196.155 199.74 192.225 195.44 191.045 187.38C190.205 181.66 188.595 181.44 187.655 186.91C186.165 195.51 180.665 201.061 172.415 202.3C167.635 203.021 165.195 204.86 169.025 204.86C172.015 204.86 179.865 207.78 182.255 209.78C184.585 211.72 187.815 218.57 187.845 221.61Z" fill="#0343B1"/>
<path fill-rule="evenodd" clip-rule="evenodd" d="M336.665 324.39C328.575 328.73 321.605 332.26 321.165 332.24C320.725 332.23 297.195 320.09 268.865 305.28C240.535 290.47 216.805 278.33 216.115 278.32C215.425 278.3 214.885 277.94 214.895 277.53C214.915 277.12 228.085 270.18 244.145 262.12L273.365 247.45L273.545 175.356L372 98.4199L369.615 201.63L369.365 306.47L360.365 311.48C355.415 314.24 344.745 320.04 336.665 324.39Z" fill="#0343B1"/>
<path d="M369.852 98.4102L370.365 98L369.853 97.7334L369.852 98.4102Z" fill="url(#paint0_linear_127_160)"/>
<path d="M274.365 48L274.286 58.1416C274.347 54.8242 274.409 52.209 274.472 50.3955C274.508 49.374 274.543 48.6064 274.579 48.1113L274.365 48Z" fill="url(#paint1_linear_127_160)"/>
<path d="M124.365 129.5L3.36523 192L3.32324 187.855L2.86523 142.75V142.44L2.36523 93.5L2.86523 93.6475V142.44V142.75L3.32324 187.855C3.58203 190.823 3.98584 191.07 4.61523 190.83C5.5752 190.47 22.7952 181.7 42.8652 171.35C76.9583 153.767 103.739 139.943 124.094 129.42L124.365 129.5Z" fill="url(#paint2_linear_127_160)"/>
<path d="M42.8652 171.35C22.7952 181.7 5.5752 190.47 4.61523 190.83C3.98584 191.07 3.58203 190.823 3.32324 187.855C2.90503 183.061 2.86523 171.164 2.86523 142.75V142.44V93.6475L124.094 129.42C103.739 139.943 76.9583 153.767 42.8652 171.35Z" fill="url(#paint3_linear_127_160)"/>
<path fill-rule="evenodd" clip-rule="evenodd" d="M276.226 48.5107L371.5 98.1328L372 98.5L273.5 175.5L275.262 147.68L275.278 142.031L275.933 58.541C275.994 55.2236 276.056 52.6084 276.119 50.7949C276.155 49.7734 276.19 49.0059 276.226 48.5107Z" fill="url(#paint4_linear_127_160)"/>
<path fill-rule="evenodd" clip-rule="evenodd" d="M216.465 389.48L215.329 390.099L185.365 406L209.833 298.142L209.865 298L254.255 321.559L294.25 342.785C297.157 344.436 297.851 344.989 297.855 345.28C297.855 345.55 286.495 351.83 272.615 359.23C258.725 366.63 233.465 380.24 216.465 389.48Z" fill="url(#paint5_linear_127_160)"/>
<path d="M204.365 20V31.5L182.365 21.5L121.865 41L182.365 9.5L204.365 20Z" fill="url(#paint6_linear_127_160)"/>
<path d="M7.86523 284L14.3653 274.5L21.3651 295.995L49.8643 322.498L13.1362 303.379L7.86523 284Z" fill="url(#paint7_linear_127_160)"/>
<path d="M338.865 314L326.365 309.498L349.365 295.499L362.365 248.999L362.365 300.999L338.865 314Z" fill="url(#paint8_linear_127_160)"/>
<rect x="134.5" y="136.5" width="112" height="111" rx="20.5" stroke="url(#paint9_linear_127_160)" stroke-width="5"/>
<defs>
<linearGradient id="paint0_linear_127_160" x1="321.865" y1="48" x2="321.865" y2="175.5" gradientUnits="userSpaceOnUse">
<stop stop-color="#0D5BC7"/>
<stop offset="1" stop-color="#2A75D3"/>
</linearGradient>
<linearGradient id="paint1_linear_127_160" x1="321.865" y1="48" x2="321.865" y2="175.5" gradientUnits="userSpaceOnUse">
<stop stop-color="#0D5BC7"/>
<stop offset="1" stop-color="#2A75D3"/>
</linearGradient>
<linearGradient id="paint2_linear_127_160" x1="63.3652" y1="93.5" x2="63.3652" y2="192" gradientUnits="userSpaceOnUse">
<stop stop-color="#3F88DD"/>
<stop offset="1" stop-color="#115EC9"/>
</linearGradient>
<linearGradient id="paint3_linear_127_160" x1="63.4799" y1="93.6475" x2="63.4799" y2="190.899" gradientUnits="userSpaceOnUse">
<stop stop-color="#3D84DC"/>
<stop offset="1" stop-color="#0D5CC7"/>
</linearGradient>
<linearGradient id="paint4_linear_127_160" x1="321.699" y1="48.1113" x2="321.699" y2="175.356" gradientUnits="userSpaceOnUse">
<stop stop-color="#0341B0"/>
<stop offset="1" stop-color="#3581DA"/>
</linearGradient>
<linearGradient id="paint5_linear_127_160" x1="241.61" y1="298" x2="241.61" y2="406" gradientUnits="userSpaceOnUse">
<stop stop-color="#3C82DA"/>
<stop offset="1" stop-color="#165DC3"/>
</linearGradient>
<linearGradient id="paint6_linear_127_160" x1="123.365" y1="23.5" x2="210.865" y2="23.5" gradientUnits="userSpaceOnUse">
<stop stop-color="#1764CB"/>
<stop offset="1" stop-color="#2C76D5"/>
</linearGradient>
<linearGradient id="paint7_linear_127_160" x1="7.89718" y1="278.998" x2="41.967" y2="327.99" gradientUnits="userSpaceOnUse">
<stop stop-color="#2E78D5"/>
<stop offset="1" stop-color="#1D62C6"/>
</linearGradient>
<linearGradient id="paint8_linear_127_160" x1="360.314" y1="248.423" x2="341.687" y2="314.792" gradientUnits="userSpaceOnUse">
<stop stop-color="#246BCC"/>
<stop offset="1" stop-color="#397FD9"/>
</linearGradient>
<linearGradient id="paint9_linear_127_160" x1="243.5" y1="238.5" x2="136.5" y2="146" gradientUnits="userSpaceOnUse">
<stop stop-color="#59A8EB"/>
<stop offset="0.605769" stop-color="#0343B1"/>
<stop offset="0.983592" stop-color="#C14D95"/>
</linearGradient>
</defs>
</svg>
